<svg width="84" height="19" viewBox="0 0 84 19" fill="none" xmlns="http://www.w3.org/2000/svg">
<path d="M26.1224 2.92078C25.8149 1.76784 24.9145 0.86745 23.7616 0.559999C21.6863 -9.94813e-07 13.3412 0 13.3412 0C13.3412 0 4.99608 -9.94813e-07 2.92078 0.559999C1.76784 0.86745 0.86745 1.76784 0.559999 2.92078C-9.94813e-07 4.99608 0 9.34431 0 9.34431C0 9.34431 -9.94813e-07 13.6816 0.559999 15.7678C0.86745 16.9098 1.76784 17.8102 2.92078 18.1176C4.99608 18.6776 13.3412 18.6776 13.3412 18.6776C13.3412 18.6776 21.6863 18.6776 23.7616 18.1176C24.9145 17.8102 25.8149 16.9098 26.1224 15.7678C26.6824 13.6816 26.6824 9.34431 26.6824 9.34431C26.6824 9.34431 26.6824 4.99608 26.1224 2.92078Z" fill="#FF0000"/>
<path d="M10.673 13.3412L17.6016 9.34433L10.673 5.33649V13.3412Z" fill="white"/>
<path fill-rule="evenodd" clip-rule="evenodd" d="M38.7278 16.9976C38.2008 16.639 37.8238 16.0863 37.5969 15.3396C37.3773 14.5856 37.2675 13.5864 37.2675 12.342V10.64C37.2675 9.38091 37.3956 8.37072 37.6518 7.60941C37.9007 6.8481 38.296 6.29176 38.8377 5.94039C39.3794 5.58902 40.0894 5.41333 40.9678 5.41333C41.8316 5.41333 42.5234 5.59268 43.0431 5.95137C43.5629 6.30274 43.9472 6.85908 44.1961 7.62039C44.4376 8.37437 44.5584 9.38091 44.5584 10.64V12.342C44.5584 13.5864 44.4376 14.5856 44.1961 15.3396C43.9618 16.1009 43.5812 16.6573 43.0541 17.0086C42.5271 17.3527 41.8133 17.5247 40.9129 17.5247C39.9833 17.5247 39.2549 17.349 38.7278 16.9976ZM41.6816 15.1639C41.828 14.7833 41.9012 14.161 41.9012 13.2973V9.65176C41.9012 8.80993 41.828 8.19503 41.6816 7.80705C41.5352 7.41908 41.279 7.22509 40.9129 7.22509C40.5543 7.22509 40.3017 7.41908 40.1553 7.80705C40.0089 8.19503 39.9357 8.80993 39.9357 9.65176V13.2973C39.9357 14.161 40.0052 14.7833 40.1443 15.1639C40.2834 15.5446 40.5396 15.7349 40.9129 15.7349C41.279 15.7349 41.5352 15.5446 41.6816 15.1639Z" fill="#282828"/>
<path fill-rule="evenodd" clip-rule="evenodd" d="M79.2454 12.3639V12.9568C79.2454 13.7108 79.2674 14.2745 79.3113 14.6478C79.3552 15.0211 79.4467 15.2956 79.5858 15.4713C79.7249 15.6397 79.9409 15.7239 80.2337 15.7239C80.629 15.7239 80.8998 15.5701 81.0462 15.2627C81.1926 14.9626 81.2731 14.4538 81.2878 13.7364L83.5607 13.8792C83.5754 13.9743 83.5827 14.1134 83.5827 14.2964C83.5827 15.3725 83.2862 16.1777 82.6933 16.7121C82.1003 17.2465 81.2622 17.5137 80.1788 17.5137C78.8831 17.5137 77.9754 17.1074 77.4556 16.2948C76.9359 15.4823 76.676 14.2232 76.676 12.5176V10.4752C76.676 8.71837 76.9432 7.43733 77.4776 6.6321C78.0193 5.82687 78.9453 5.42426 80.2556 5.42426C81.1633 5.42426 81.8588 5.58896 82.3419 5.91837C82.825 6.24778 83.1654 6.76386 83.3631 7.46661C83.5534 8.16203 83.6486 9.12831 83.6486 10.3654V12.3639H79.2454ZM79.5858 7.44465C79.4541 7.61301 79.3662 7.88386 79.3223 8.2572C79.2711 8.63053 79.2454 9.19785 79.2454 9.95916V10.8046H81.178V9.95916C81.178 9.21249 81.1524 8.64517 81.1011 8.2572C81.0499 7.86922 80.9584 7.59471 80.8266 7.43367C80.6948 7.27262 80.4862 7.1921 80.2007 7.1921C79.9226 7.1921 79.7176 7.27628 79.5858 7.44465Z" fill="#282828"/>
<path d="M32.3153 12.1443L29.3176 1.32861H31.931L32.9851 6.23685C33.2486 7.44469 33.4426 8.47319 33.567 9.32234H33.6439C33.7391 8.71476 33.9367 7.68992 34.2368 6.24783L35.3239 1.32861H37.9372L34.9066 12.1443V17.338H32.3153V12.1443Z" fill="#282828"/>
<path d="M53.0572 5.64392V17.338H50.9929L50.7623 15.9106H50.7074C50.151 16.9867 49.3129 17.5247 48.1929 17.5247C47.4169 17.5247 46.8423 17.2722 46.4689 16.7671C46.1029 16.2546 45.9199 15.4604 45.9199 14.3843V5.64392H48.5552V14.2306C48.5552 14.7503 48.6101 15.12 48.7199 15.3396C48.837 15.5665 49.0274 15.68 49.2909 15.68C49.5252 15.68 49.7448 15.6105 49.9497 15.4714C50.162 15.3323 50.3194 15.1529 50.4219 14.9333V5.64392H53.0572Z" fill="#282828"/>
<path d="M66.5632 5.64392V17.338H64.4988L64.2683 15.9106H64.2134C63.6497 16.9867 62.8115 17.5247 61.6988 17.5247C60.9229 17.5247 60.3483 17.2722 59.9749 16.7671C59.6089 16.2546 59.4259 15.4604 59.4259 14.3843V5.64392H62.0612V14.2306C62.0612 14.7503 62.1161 15.12 62.2259 15.3396C62.343 15.5665 62.5334 15.68 62.7969 15.68C63.0311 15.68 63.2507 15.6105 63.4557 15.4714C63.668 15.3323 63.8254 15.1529 63.9279 14.9333V5.64392H66.5632Z" fill="#282828"/>
<path d="M60.2055 3.44783H57.5922V17.338H55.0228V3.44783H52.4094V1.32861H60.2055V3.44783Z" fill="#282828"/>
<path fill-rule="evenodd" clip-rule="evenodd" d="M75.5121 10.5851V12.4298C75.5121 14.172 75.3035 15.4567 74.8862 16.2839C74.4617 17.1038 73.8065 17.5137 72.9208 17.5137C72.423 17.5137 71.9691 17.3966 71.5592 17.1623C71.1566 16.9354 70.8528 16.6243 70.6478 16.229H70.5929L70.3184 17.338H68.1443V0.735657H70.6808V6.90664H70.7027C70.9296 6.4601 71.2554 6.09775 71.68 5.81958C72.0972 5.54873 72.5474 5.4133 73.0306 5.4133C73.6528 5.4133 74.1432 5.57801 74.5019 5.90742C74.8533 6.23683 75.1095 6.77121 75.2706 7.51056C75.4316 8.2499 75.5121 9.27474 75.5121 10.5851ZM72.8549 10.7717C72.8549 9.8567 72.8293 9.1503 72.778 8.65252C72.7195 8.16206 72.617 7.81069 72.4706 7.5984C72.3242 7.38611 72.1155 7.27997 71.8447 7.27997C71.5958 7.27997 71.3615 7.38245 71.1419 7.58742C70.9223 7.79239 70.7686 8.05226 70.6808 8.36703V15.0102C70.7979 15.2151 70.9479 15.3689 71.131 15.4713C71.314 15.5738 71.5153 15.6251 71.7349 15.6251C72.013 15.6251 72.2363 15.5226 72.4047 15.3176C72.5657 15.1126 72.6828 14.7686 72.7561 14.2855C72.8219 13.8023 72.8549 13.1362 72.8549 12.287V10.7717Z" fill="#282828"/>
</svg>
